{"title":"Wolfgirl {2001} +18 Uncensored x264 DVDRip  [English - Hindi]","uid":7691272,"size":764548595,"categoryP":"video","categoryS":"hd___movies","magnet":"?xt=urn:btih:94d2f578527e610047df343204a6aec5af908793&amp;dn=Wolfgirl+%7B2001%7D+%2B18+Uncensored+x264+DVDRip++%5BEnglish+-+Hindi%5D&amp;tr=udp%3A%2F%2Ftracker.openbittorrent.com%3A80&amp;tr=udp%3A%2F%2Fopen.demonii.com%3A1337&amp;tr=udp%3A%2F%2Ftracker.coppersurfer.tk%3A6969&amp;tr=udp%3A%2F%2Fexodus.desync.com%3A6969","seeders":1,"leechers":2,"uploader":"worldastro","files":2,"time":1349102203,"description":" &lt;a href=&quot;http://s10.postimage.org/dszv7tj8p/1b3fdfc2af7865f205cd313fc1a9cdb4.jpg&quot; rel=&quot;nofollow&quot; target=&quot;_NEW&quot;&gt;http://s10.postimage.org/dszv7tj8p/1b3fdfc2af7865f205cd313fc1a9cdb4.jpg&lt;/a&gt;\n\n\nGeneral\nFormat : Matroska\nFormat version : Version 2\nFile size : 719 MiB\nDuration : 1h 32mn\nOverall bit rate mode : Variable\nOverall bit rate : 1 088 Kbps\nMovie name : Wolfgirl {2001} +18 Uncensored x264 DVDRip Dual Audio [English - Hindi]\n\n\nVideo\nFormat : AVC\nFormat/Info : Advanced Video Codec\nFormat profile : &lt;a class=&quot;__cf_email__&quot; href=&quot;/cdn-cgi/l/email-protection&quot; data-cfemail=&quot;87cfeee0efc7cbb5a9b5&quot;&gt;[email&amp;#160;protected]&lt;/a&gt;&lt;script cf-hash='f9e31' type=&quot;text/javascript&quot;&gt;\n/* &lt;![CDATA[ */!function(){try{var t=&quot;currentScript&quot;in document?document.currentScript:function(){for(var t=document.getElementsByTagName(&quot;script&quot;),e=t.length;e--;)if(t[e].getAttribute(&quot;cf-hash&quot;))return t[e]}();if(t&amp;&amp;t.previousSibling){var e,r,n,i,c=t.previousSibling,a=c.getAttribute(&quot;data-cfemail&quot;);if(a){for(e=&quot;&quot;,r=parseInt(a.substr(0,2),16),n=2;a.length-n;n+=2)i=parseInt(a.substr(n,2),16)^r,e+=String.fromCharCode(i);e=document.createTextNode(e),c.parentNode.replaceChild(e,c)}}}catch(u){}}();/* ]]&gt; */&lt;/script&gt;\nFormat settings, CABAC : Yes\nFormat settings, ReFrames : 4 frames\nMuxing mode : Header stripping\nCodec ID : V_MPEG4/ISO/AVC\nDuration : 1h 32mn\nBit rate : 788 Kbps\nWidth : 624 pixels\nHeight : 336 pixels\nDisplay aspect ratio : 1.85:1\nFrame rate mode : Constant\nFrame rate : 25.000 fps\nColor space : YUV\nChroma subsampling : 4:2:0\nBit depth : 8 bits\nScan type : Progressive\nBits/(Pixel*Frame) : 0.150\nStream size : 535 MiB (74%)\nWriting library : x264 core 125 r2200 999b753\n\n\nAudio #1\nID : 2\nFormat : MPEG Audio\nFormat version : Version 1\nFormat profile : Layer 3\nMode : Joint stereo\nMode extension : MS Stereo\nMuxing mode : Header stripping\nCodec ID : A_MPEG/L3\nCodec ID/Hint : MP3\nDuration : 1h 37mn\nBit rate mode : Variable\nBit rate : 129 Kbps\nMinimum bit rate : 32.0 Kbps\nChannel(s) : 2 channels\nSampling rate : 48.0 KHz\nCompression mode : Lossy\nStream size : 90.1 MiB (13%)\nTitle : =@King=\nWriting library : LAME3.98r\nEncoding settings : -m j -V 4 -q 0 -lowpass 17.5 --vbr-new -b 32\nLanguage : English\nDefault : No\nForced : No\n\nAudio #2\nID : 3\nFormat : MPEG Audio\nFormat version : Version 1\nFormat profile : Layer 3\nMode : Joint stereo\nMode extension : MS Stereo\nMuxing mode : Header stripping\nCodec ID : A_MPEG/L3\nCodec ID/Hint : MP3\nDuration : 1h 32mn\nBit rate mode : Constant\nBit rate : 128 Kbps\nChannel(s) : 2 channels\nSampling rate : 48.0 KHz\nCompression mode : Lossy\nDelay relative to video : 16ms\nStream size : 84.6 MiB (12%)\nTitle : =@King=\nWriting library : LAME3.98 (alpha)\nLanguage : Hindi\nDefault : Yes\nForced : No\n\nSample\nWith Torrent\n\nNote:-+18 Uncensored Nudity Scenes Also Included\n","torrent":{"xt":"urn:btih:94d2f578527e610047df343204a6aec5af908793","amp;dn":"Wolfgirl+%7B2001%7D+%2B18+Uncensored+x264+DVDRip++%5BEnglish+-+Hindi%5D","amp;tr":["udp%3A%2F%2Ftracker.openbittorrent.com%3A80","udp%3A%2F%2Fopen.demonii.com%3A1337","udp%3A%2F%2Ftracker.coppersurfer.tk%3A6969","udp%3A%2F%2Fexodus.desync.com%3A6969"],"infoHash":"94d2f578527e610047df343204a6aec5af908793","infoHashBuffer":{"type":"Buffer","data":[148,210,245,120,82,126,97,0,71,223,52,50,4,166,174,197,175,144,135,147]},"announce":[],"urlList":[]}}